# xmcd CD database file generated by LOLA_Freedb v0.9beta0
# 
# Track frame offsets:
#      150
#      28520
#      49514
#      65780
#      75571
#      106210
#      120955
#      129679
#      139480
#      150727
#      165114
#      178128
#      190626
# 
# Disc length: 2739 seconds
# 
# Revision: 0 
# Processed by: cddbd v1.5.2PL0 Copyright (c) Steve Scherf et al.
# Submitted via: LOLA_Freedb v0.9beta0
# 
DISCID=a40ab10d
DTITLE=Colette MAGNY - Inédits et Introuvables
DYEAR=1900
DGENRE=
TTITLE0=Temple au Dieu Maïs
TTITLE1=Gracias a la vida
TTITLE2=El aparecido
TTITLE3=Herminda de la Victoria
TTITLE4=Marazul
TTITLE5=La fin de tout
TTITLE6=Danse
TTITLE7=Néant
TTITLE8=Egarées
TTITLE9=Le p'tit Quinquin
TTITLE10=La petite poule grise
TTITLE11=Toutouic
TTITLE12=Le grand Lustukru
EXTD=SCALEN - CMPCD 09 - 
EXTT0=
EXTT1=
EXTT2=
EXTT3=
EXTT4=
EXTT5=
EXTT6=
EXTT7=
EXTT8=
EXTT9=
EXTT10=
EXTT11=
EXTT12=
PLAYORDER=
